<?xml version="1.0" encoding="UTF-8" standalone="no"?>
<svg
   xmlns:dc="http://purl.org/dc/elements/1.1/"
   xmlns:cc="http://creativecommons.org/ns#"
   xmlns:rdf="http://www.w3.org/1999/02/22-rdf-syntax-ns#"
   xmlns:svg="http://www.w3.org/2000/svg"
   xmlns="http://www.w3.org/2000/svg"
   id="svg8"
   version="1.1"
   viewBox="0 0 340.52429 276.51181"
   height="276.51181mm"
   width="340.52429mm">
  <defs
     id="defs2" />
  <metadata
     id="metadata5">
    <rdf:RDF>
      <cc:Work
         rdf:about="">
        <dc:format>image/svg+xml</dc:format>
        <dc:type
           rdf:resource="http://purl.org/dc/dcmitype/StillImage" />
        <dc:title></dc:title>
      </cc:Work>
    </rdf:RDF>
  </metadata>
  <g
     transform="translate(57.62524,7.5654222)"
     id="layer1">
    <g
       id="g125"
       transform="matrix(0.35277777,0,0,-0.35277777,-57.625144,268.94638)">
      <g
         id="g286">
        <path
           d="m 801.68,518.527 c 0,0 173.789,25.426 163.113,-127.047 10e-4,0 -8.027,-110.234 -160.437,-114.511 l -2.676,241.558"
           style="fill:#31589b;fill-opacity:1;fill-rule:nonzero;stroke:none;stroke-width:0.1"
           id="path129" />
        <path
           d="m 821.692,468.613 c 0,0 100.765,14.657 94.562,-73.605 0,0 -4.633,-63.852 -92.965,-66.363 l -1.597,139.968"
           style="fill:#f6b4dd;fill-opacity:1;fill-rule:nonzero;stroke:none;stroke-width:0.1"
           id="path131" />
        <path
           d="m 164.661,518.527 c 0,0 -173.78952,25.426 -163.11373,-127.047 0,0 7.99609,-110.234 160.43773,-114.511 l 2.676,241.558"
           style="fill:#31589b;fill-opacity:1;fill-rule:nonzero;stroke:none;stroke-width:0.1"
           id="path133" />
        <path
           d="M 2.59023,386.191 C -7.3668,528.742 144.422,508.375 164.137,506.09 l -0.519,12.437 c 0,0 -173.7895,25.426 -163.148859,-127.047 0,0 1.078129,-12.503 7.996089,-29.117 -5.02734,13.907 -5.875,23.828 -5.875,23.828"
           style="fill:#3a7ab3;fill-opacity:1;fill-rule:nonzero;stroke:none;stroke-width:0.1"
           id="path135" />
        <path
           d="M 962.153,386.191 C 972.106,528.742 820.321,508.375 800.602,506.09 l 0.523,12.437 c 0,0 173.789,25.426 163.149,-127.047 0,0 -1.078,-12.503 -8,-29.117 5.027,13.907 5.879,23.828 5.879,23.828"
           style="fill:#3a7ab3;fill-opacity:1;fill-rule:nonzero;stroke:none;stroke-width:0.1"
           id="path137" />
        <path
           d="M 157.903,306.871 C 23.1566,310.656 12.7074,405.32 12.2855,410.379 c -0.2929,-5.613 -0.5546,-11.227 -0.0976,-17.527 0,0 7.3125,-100.082 145.7151,-104 v 18.019"
           style="fill:#3a7ab3;fill-opacity:1;fill-rule:nonzero;stroke:none;stroke-width:0.1"
           id="path139" />
        <path
           d="m 806.379,306.871 c 134.719,3.785 145.196,98.449 145.621,103.508 0.263,-5.613 0.52,-11.227 0.063,-17.527 0,0 -7.277,-100.082 -145.684,-104 v 18.019"
           style="fill:#3a7ab3;fill-opacity:1;fill-rule:nonzero;stroke:none;stroke-width:0.1"
           id="path141" />
        <path
           d="m 144.618,468.613 c 0,0 -100.7348,14.657 -94.5668,-73.605 0,0 4.6367,-63.852 92.9998,-66.363 l 1.567,139.968"
           style="fill:#f6b4dd;fill-opacity:1;fill-rule:nonzero;stroke:none;stroke-width:0.1"
           id="path143" />
        <path
           d="m 144.391,446.582 0.227,22.031 c 0,0 -100.7348,14.657 -94.5668,-73.605 0,0 0.6875,-8.422 5.6797,-19.262 -2.8047,71.914 67.7031,72.336 88.6601,70.836"
           style="fill:#f486c8;fill-opacity:1;fill-rule:nonzero;stroke:none;stroke-width:0.1"
           id="path145" />
        <path
           d="m 821.95,446.582 -0.258,22.031 c 0,0 100.765,14.657 94.562,-73.605 0,0 -0.652,-8.422 -5.644,-19.262 2.804,71.914 -67.703,72.336 -88.66,70.836"
           style="fill:#f486c8;fill-opacity:1;fill-rule:nonzero;stroke:none;stroke-width:0.1"
           id="path147" />
        <path
           d="M 671.633,86.6641 C 671.633,38.7773 633.344,0 586.11,0 c -47.235,0 -85.524,38.7773 -85.524,86.6641 0,47.8559 38.289,86.6329 85.524,86.6329 47.234,0 85.523,-38.777 85.523,-86.6329"
           style="fill:#31589b;fill-opacity:1;fill-rule:nonzero;stroke:none;stroke-width:0.1"
           id="path149" />
        <path
           d="m 765.446,578.391 c -36.168,38.355 -99.133,71.359 -121.297,79.879 -41.231,15.796 -78.246,22.261 -96.363,27.125 19.293,25.168 42.109,61.988 43.839,98.418 0,0 -36.332,-39.368 -84.773,-66.625 0,0 9.074,21.25 -6.106,63.652 0,0 -27.843,-68.352 -96.554,-92.996 -17.465,-7.41 -37.606,-13.778 -74.196,-27.551 h 0.161 c -1.793,-0.688 -3.786,-1.34 -5.485,-2.023 -22,-8.915 -85.129,-41.524 -121.332,-79.879 C 107.176,476.578 113.477,381.102 113.903,356.945 116.055,237.637 152.254,154.594 250.215,99.2305 297.614,72.3984 333.848,60.7773 377.426,52.3242 c 37.602,-7.2461 67.406,-10.4765 106.969,-10.4765 0.031,0 0.031,0 0.098,0 40.086,0 70.441,3.2304 108.078,10.4765 43.511,8.4531 78.703,20.0742 126.097,46.9063 97.93,55.3635 134.098,138.4065 136.286,257.7145 0.421,24.157 6.691,119.633 -89.508,221.446"
           style="fill:#31589b;fill-opacity:1;fill-rule:nonzero;stroke:none;stroke-width:0.1"
           id="path151" />
        <path
           d="m 765.446,578.391 c -36.168,38.355 -99.133,71.359 -121.297,79.879 -41.231,15.796 -78.246,22.261 -96.363,27.125 19.293,25.168 42.109,61.988 43.839,98.418 0,0 -36.332,-39.368 -84.773,-66.625 0,0 9.074,21.25 -6.106,63.652 0,0 -27.843,-68.352 -96.554,-92.996 -17.465,-7.41 -37.606,-13.778 -74.196,-27.551 h 0.161 c -1.793,-0.688 -3.786,-1.34 -5.485,-2.023 -22,-8.915 -85.129,-41.524 -121.332,-79.879 -57.972,-61.399 -78.633,-120.383 -85.847,-162.887 9.269,41 31.207,93.914 83.043,148.754 36.199,38.355 99.332,70.996 121.332,79.91 1.695,0.684 3.656,1.305 5.484,2.023 h -0.164 c 36.558,13.774 56.699,20.141 74.195,27.551 68.715,24.645 96.559,92.965 96.559,92.965 10.117,-34.863 -7.313,-70.215 -7.313,-70.215 64.078,28.465 87.383,63.949 87.383,63.949 -15.57,-42.371 -29.441,-63.949 -49.223,-82.328 36.723,-7.05 85.293,-16.941 121.528,-33.914 21.512,-10.086 76.156,-41.586 112.324,-79.941 96.195,-101.813 89.93,-197.258 89.504,-221.449 -0.488,-26.731 -2.969,-51.344 -7.215,-74.586 6.074,27.125 9.434,56.472 10.024,88.722 0.421,24.157 6.691,119.633 -89.508,221.446"
           style="fill:#3a7ab3;fill-opacity:1;fill-rule:nonzero;stroke:none;stroke-width:0.1"
           id="path153" />
        <path
           d="m 664.68,382.602 c 23.895,21.023 37.899,46.351 37.899,73.675 0,72.075 -47.954,124.239 -134.262,124.239 -39.465,0 -61.008,-16.129 -86.207,-16.129 -30.457,0 -41.457,12.961 -98.942,12.961 -79.547,0 -121.527,-54.645 -121.527,-121.071 0,-30.523 17.629,-58.531 46.906,-80.824 -47.527,-32.609 -76.937,-77.687 -76.937,-127.504 0,-99.297 116.73,-179.7927 260.715,-179.7927 143.988,0 260.75,80.4957 260.75,179.7927 0,53.668 -34.274,101.715 -88.395,134.653"
           style="fill:#f6b4dd;fill-opacity:1;fill-rule:nonzero;stroke:none;stroke-width:0.1"
           id="path155" />
        <path
           d="m 702.634,453.273 c 0.067,1.012 0.116,2.366 0.116,3.413 0,72.075 -47.643,123.83 -133.952,123.83 -39.496,0 -61.039,-16.129 -86.242,-16.129 -30.422,0 -41.422,12.961 -98.937,12.961 -79.551,0 -121.981,-53.93 -121.981,-120.355 0,-0.95 0.087,-2.481 0.119,-3.427 1.992,64.274 44.268,116.372 121.862,116.372 57.515,0 68.515,-12.993 98.937,-12.993 25.203,0 46.746,16.125 86.242,16.125 84.481,0 131.844,-50.105 133.836,-119.797 z m -32.567,-73.578 c -1.504,-1.5 -2.711,-3.101 -4.344,-4.504 52.945,-32.218 86.633,-78.898 88.102,-131.093 0.066,1.308 0.296,2.582 0.296,3.851 0,52.164 -32.546,98.91 -84.054,131.746 z M 232.657,247.949 c 0,-1.238 0.226,-2.48 0.257,-3.687 1.438,48.312 30.36,91.988 76.68,123.75 -1.633,1.273 -2.875,2.773 -4.473,4.047 -44.785,-32.286 -72.464,-75.926 -72.464,-124.11"
           style="fill:#fce9f5;fill-opacity:1;fill-rule:nonzero;stroke:none;stroke-width:0.1"
           id="path157" />
        <path
           d="m 492.293,82.9766 c -117.609,0 -217.269,51.2144 -252.98,122.2464 C 267.192,126.586 369.719,68.1563 492.325,68.1563 615.161,68.1563 717.856,126.816 745.5,205.613 709.989,134.387 610.164,82.9766 492.293,82.9766"
           style="fill:#f486c8;fill-opacity:1;fill-rule:nonzero;stroke:none;stroke-width:0.1"
           id="path159" />
        <path
           d="m 644.637,90.9727 c 0,-33.9493 -27.519,-61.5 -61.465,-61.5 -33.949,0 -61.5,27.5507 -61.5,61.5 0,33.9493 27.551,61.4653 61.5,61.4653 33.946,0 61.465,-27.516 61.465,-61.4653"
           style="fill:#f6b4dd;fill-opacity:1;fill-rule:nonzero;stroke:none;stroke-width:0.1"
           id="path161" />
        <path
           d="m 537.633,70.7031 c 0,28.6602 23.242,51.9019 51.903,51.9019 17.3,0 32.546,-8.554 41.945,-21.578 -6.758,20.727 -26.047,35.907 -49.094,35.907 -28.66,0 -51.902,-23.243 -51.902,-51.9027 0,-11.3594 3.754,-21.7735 9.926,-30.293 -1.633,5.0273 -2.778,10.3476 -2.778,15.9648"
           style="fill:#fce9f5;fill-opacity:1;fill-rule:nonzero;stroke:none;stroke-width:0.1"
           id="path163" />
        <path
           d="m 612.09,80.332 c 0,-14.8515 -12.011,-26.8672 -26.832,-26.8672 -14.851,0 -26.863,12.0157 -26.863,26.8672 0,14.8203 12.012,26.863 26.863,26.863 14.821,0 26.832,-12.0427 26.832,-26.863"
           style="fill:#f35ab5;fill-opacity:1;fill-rule:nonzero;stroke:none;stroke-width:0.1"
           id="path165" />
        <path
           d="m 605.039,94.4648 c 0,1.7618 -0.683,3.3321 -0.976,4.961 -4.863,4.7652 -11.492,7.7692 -18.805,7.7692 -14.851,0 -26.863,-12.0427 -26.863,-26.863 0,-1.7617 0.652,-3.3281 0.98,-4.9609 4.864,-4.7656 11.457,-7.7695 18.801,-7.7695 14.852,0 26.863,12.0429 26.863,26.8632"
           style="fill:#e72c8d;fill-opacity:1;fill-rule:nonzero;stroke:none;stroke-width:0.1"
           id="path167" />
        <path
           d="m 420.645,465.809 c 0,-32.188 -19.457,-58.301 -43.481,-58.301 -23.992,0 -43.449,26.113 -43.449,58.301 0,32.183 19.457,58.296 43.449,58.296 24.024,0 43.481,-26.113 43.481,-58.296"
           style="fill:#31589b;fill-opacity:1;fill-rule:nonzero;stroke:none;stroke-width:0.1"
           id="path169" />
        <path
           d="m 617.77,465.809 c 0,-32.188 -19.453,-58.301 -43.445,-58.301 -24.024,0 -43.481,26.113 -43.481,58.301 0,32.183 19.457,58.296 43.481,58.296 23.992,0 43.445,-26.113 43.445,-58.296"
           style="fill:#31589b;fill-opacity:1;fill-rule:nonzero;stroke:none;stroke-width:0.1"
           id="path171" />
        <path
           d="m 390.938,492.313 c 0,-4.668 -3.785,-8.485 -8.453,-8.485 -4.668,0 -8.489,3.817 -8.489,8.485 0,4.667 3.821,8.457 8.489,8.457 4.668,0 8.453,-3.79 8.453,-8.457"
           style="fill:#ffffff;fill-opacity:1;fill-rule:nonzero;stroke:none;stroke-width:0.1"
           id="path173" />
        <path
           d="m 596.586,492.313 c 0,-4.668 -3.82,-8.485 -8.488,-8.485 -4.668,0 -8.484,3.817 -8.484,8.485 0,4.667 3.816,8.457 8.484,8.457 4.668,0 8.488,-3.79 8.488,-8.457"
           style="fill:#ffffff;fill-opacity:1;fill-rule:nonzero;stroke:none;stroke-width:0.1"
           id="path175" />
        <path
           d="m 588.098,621.578 c 0,-8.586 -6.953,-15.539 -15.535,-15.539 -8.586,0 -15.539,6.953 -15.539,15.539 0,8.586 6.953,15.539 15.539,15.539 8.582,0 15.535,-6.953 15.535,-15.539"
           style="fill:#3a7ab3;fill-opacity:1;fill-rule:nonzero;stroke:none;stroke-width:0.1"
           id="path177" />
        <path
           d="m 435.461,374.051 c 0,0 -5.375,41.488 43.718,41.488 0,0 42.011,1.047 42.493,-40.543 l -86.211,-0.945"
           style="fill:#f486c8;fill-opacity:1;fill-rule:nonzero;stroke:none;stroke-width:0.1"
           id="path179" />
        <path
           d="m 471.231,389.586 c 0,-7.086 -5.777,-12.863 -12.863,-12.863 -7.082,0 -12.86,5.777 -12.86,12.863 0,7.082 5.778,12.859 12.86,12.859 7.086,0 12.863,-5.777 12.863,-12.859"
           style="fill:#e72c8d;fill-opacity:1;fill-rule:nonzero;stroke:none;stroke-width:0.1"
           id="path181" />
        <path
           d="m 510.891,389.586 c 0,-7.086 -5.746,-12.863 -12.863,-12.863 -7.082,0 -12.828,5.777 -12.828,12.863 0,7.082 5.746,12.859 12.828,12.859 7.117,0 12.863,-5.777 12.863,-12.859"
           style="fill:#e72c8d;fill-opacity:1;fill-rule:nonzero;stroke:none;stroke-width:0.1"
           id="path183" />
        <path
           d="m 484.59,430.031 c 0,-4.047 -3.23,-7.277 -7.281,-7.277 -4.012,0 -7.309,3.23 -7.309,7.277 0,4.047 3.297,7.282 7.309,7.282 4.051,0 7.281,-3.235 7.281,-7.282"
           style="fill:#fce9f5;fill-opacity:1;fill-rule:nonzero;stroke:none;stroke-width:0.1"
           id="path185" />
        <path
           d="m 399.655,433.118 c 0,-11.44 -10.334,-20.715 -23.082,-20.715 -12.748,0 -23.083,9.275 -23.083,20.715 0,11.441 10.335,20.715 23.083,20.715 12.748,0 23.082,-9.274 23.082,-20.715"
           style="fill:#3a7ab3;fill-opacity:1;fill-rule:nonzero;stroke:none;stroke-width:0.1"
           id="path187" />
        <path
           d="m 596.152,433.118 c 0,-11.44 -10.335,-20.715 -23.083,-20.715 -12.748,0 -23.082,9.275 -23.082,20.715 0,11.441 10.334,20.715 23.082,20.715 12.748,0 23.083,-9.274 23.083,-20.715"
           style="fill:#3a7ab3;fill-opacity:1;fill-rule:nonzero;stroke:none;stroke-width:0.1"
           id="path189" />
      </g>
    </g>
  </g>
</svg>
